<?xml version='1.0'?>
<svg width="32" height="32" xmlns="http://www.w3.org/2000/svg">
 <desc>Created with Rapha&#235;l</desc>
 <g>
  <title>Layer 1</title>
  <path d="m16.277,8.655c-2.879001,0 -5.227,2.181001 -5.227,4.854s2.348,4.854001 5.227,4.854001c2.879,0 5.226999,-2.181002 5.226999,-4.854001s-2.348,-4.854 -5.226999,-4.854zm13.257999,4.831c-0.368999,-1.819 -1.068001,-3.052 -1.726999,-3.995c0.049999,0.129 0.09,0.259 0.137999,0.388c-2.339998,-6.355 -11.703999,-9.8 -18.936999,-5.43c-0.056,0.27 -0.073,0.538 -0.073,0.804c0,-0.051 -0.006,-0.098 -0.004,-0.15c-1.743,-0.134 -3.854,2.061 -5.731,6.083c-0.953,2.277 -1.298,4.77 -0.414,7.693c0.516,1.705999 1.328,3.455999 2.499,4.814001c3.471,4.026999 8.788001,5.67 11.884,4.834999c0.004,0.000999 0.009001,0.003 0.014,0.004c5.969,-0.125 10.493999,-4.227999 12.125,-9.569c0.587,-1.927999 0.625,-3.506 0.226,-5.476999zm-23.492,9.554001c-0.96,-1.112001 -1.755,-2.651001 -2.299,-4.452002c-0.733,-2.42 -0.612,-4.65 0.379,-7.014999c1.006,-2.153 1.988,-3.568 2.833,-4.419c0.15,0.742 0.521,1.628 1.113,2.649001c0.217999,0.379 0.459,0.700999 0.691999,1.011999c0.179,0.237 0.356,0.474 0.513,0.729c0.124,0.202001 0.238999,0.445001 0.354,0.737c-0.239,2.754 0.892,5.138 3.148,6.678999l-2.546,2.25l-0.202,0.171001c-0.208,0.171 -0.447,0.372999 -0.651,0.588999c-1.36,1.444 -0.25,2.831001 0.286,3.498001l0.068,0.087c0.237,0.296999 0.513,0.619999 0.815,0.938c-1.582999,-0.768 -3.171,-1.908001 -4.502999,-3.452999zm22.311,-4.370001c-1.6,5.232 -5.937,8.700001 -11.07,8.858999c-2.485001,-0.583 -4.362,-1.779999 -5.586,-3.556999c0.004,-0.004 0.01,-0.007999 0.015,-0.013l4.943999,-3.836c2.226,-0.123999 3.854,-0.887999 4.847,-2.278c1.222,-1.411999 1.792,-3.025 1.693001,-4.860999c1.816999,0.377 3.389,0.903 4.855,1.882999l0.115999,0.078l0.134001,0.043c0.156,0.049 0.311001,0.076 0.459,0.081c0.109001,1.24 -0.021,2.333 -0.407,3.601zm0.254999,-4.633c-1.950998,-1.306 -4.061998,-1.867 -6.594,-2.285c0.531,2.358 -0.084,4.072001 -1.326,5.512c-0.882,1.235001 -2.382,1.822001 -4.393999,1.875l-5.22,4.052c-0.497,0.409 -0.591,0.819 -0.282,1.229c0.849,1.277 1.929,2.202 3.122,2.878c-0.013,0 -0.026,0.001999 -0.039,0.003c-0.001,-0.001001 -0.004001,-0.002001 -0.006001,-0.004c-0.02,0.002998 -0.040999,0.004 -0.062,0.004999c-0.08,0.000999 -0.16,-0.000999 -0.238999,-0.01c-0.156,-0.021 -0.314,-0.063999 -0.459001,-0.118c-0.898,-0.333 -1.889999,-1.351999 -2.597,-2.239c-0.580999,-0.73 -1.205999,-1.432999 -0.410999,-2.275c0.257999,-0.273001 0.582,-0.514 0.789,-0.698l2.521,-2.229c0.172,-0.136999 0.35,-0.277 0.535,-0.423c0.053,-0.042 0.107,-0.084 0.162001,-0.126999c0.564,-0.442001 0.483,-0.32 -0.108,-0.642c-2.419001,-1.32 -3.677,-3.614 -3.354,-6.389c-0.149,-0.410001 -0.317,-0.792001 -0.518001,-1.124001c-0.363,-0.599999 -0.834,-1.102 -1.193999,-1.723c-0.900001,-1.556 -1.847001,-3.902 0.013,-3.682c-0.005,-0.053 -0.002,-0.11 -0.005,-0.164c0.094,2.001 1.526,3.822999 1.742001,4.888c0.077999,0.382 0.294,0.705 0.612,0.28c2.538,-3.395 6.068999,-3.053 8.328,-1.312c0.443001,0.34 0.684,0.755 1.084,1.110001c0.154001,0.138 0.328001,0.259 0.535,0.351c0.743,0.332 1.807001,0.312 2.607,0.434c1.371,0.208 2.707001,0.464 3.971001,0.812c0.25,0.03 0.424,-0.004001 0.521,-0.101001c0.211,-0.207999 -0.002001,-0.886999 -0.121,-1.263c0.277,0.805 0.535999,1.609 0.773001,2.415c0.181,0.628 0.137999,1.135 -0.386002,0.964z" fill="#333333"/>
  <rect opacity="0" stroke="#000" fill="#000000" height="32" width="32" y="0.5" x="0.5"/>
 </g>
</svg>