<?xml version='1.0'?>
<svg width="32" height="32" xmlns="http://www.w3.org/2000/svg">
 <desc>Created with Rapha&#235;l</desc>
 <g>
  <title>Layer 1</title>
  <path d="m23.042999,4.649l-0.403999,-2.312l-1.59,1.727l-2.323,-0.33l1.151001,2.045l-1.032001,2.108l2.302,-0.463l1.686001,1.633l0.271,-2.332l2.073999,-1.099l-2.135,-0.977zm3.174,13.549l-0.181999,-1.25l-0.882,0.905001l-1.244999,-0.214001l0.587999,1.118l-0.587999,1.118l1.244999,-0.214001l0.882,0.905001l0.181999,-1.25l1.133001,-0.559999l-1.133001,-0.558001zm-21.296999,-10.526l0.948,-0.372l0.844,0.569l-0.062,-1.016l0.802,-0.627l-0.985,-0.256l-0.349,-0.957l-0.547,0.859l-1.018,0.036l0.647,0.786l-0.28,0.978zm5.519,2.833l1.021,-1.096l1.481,0.219l-0.727,-1.31l0.667,-1.341l-1.469999,0.287l-1.069,-1.048l-0.182,1.487l-1.328,0.693l1.358,0.632l0.249001,1.477zm6.794999,2.216c-0.587999,-0.368 -1.171999,-0.618 -1.691999,-0.729c-0.492,-0.089 -1.039,-0.148999 -1.425,0.374001l-11.555,18.422h6.68l9.669,-15.416c0.303001,-0.576 0.012001,-1.040999 -0.282999,-1.447c-0.325001,-0.417 -0.806,-0.835 -1.394001,-1.204zm-3.620999,9.215001c-0.254,-0.396 -0.74,-0.857 -1.373,-1.254002c-0.632,-0.396 -1.257999,-0.633999 -1.726,-0.689999l4.421,-7.052001c0.063999,-0.013 0.261999,-0.021 0.542999,0.066c0.346001,0.092 0.785001,0.285001 1.224999,0.562c0.504002,0.313 0.908001,0.677 1.133001,0.97c0.112999,0.145 0.177999,0.271 0.195,0.335c0.002001,0.006 0.004,0.011 0.004,0.014999l-4.422,7.048001z" fill="#333333"/>
  <rect opacity="0" stroke="#000" fill="#000000" height="32" width="32" y="0.5" x="0.5"/>
 </g>
</svg>