<?xml version='1.0'?>
<svg width="32" height="32" xmlns="http://www.w3.org/2000/svg">
 <desc>Created with Rapha&#235;l</desc>
 <g>
  <title>Layer 1</title>
  <path d="m7.831,29.354c0.685,0.353001 1.62,1.177999 2.344,0.875999c0.474999,-0.195 0.753,-1.300999 1.047999,-1.882999c2.221001,-4.375999 4.635,-9.353001 6.392,-13.611c0,-0.190001 0.101,-0.337 -0.049,-0.595c0.983,-1.599999 1.65,-3.358 2.724001,-5.138c0.339998,-0.566 0.685999,-1.351 1.162998,-1.577l0.881001,-0.368c1.120001,-0.288 1.938,-0.278 2.719,0.473c0.396,0.383 0.578001,1.014999 0.961,1.395c0.259001,0.26 1.246,0.899 1.613001,0.8c0.285,-0.077 0.519999,-0.363999 0.719999,-0.728l0.695999,-1.286c0.195002,-0.366 0.306002,-0.718 0.215,-0.999c-0.116999,-0.362 -1.191999,-0.84 -1.552,-0.915c-0.528,-0.113 -1.153999,0.081 -1.691999,-0.041c-1.056999,-0.243 -1.513,-0.922 -1.882999,-2.02c-2.608,-1.533 -6.119001,-2.53 -10.207001,-1.244c-1.109,0.349 -2.172,0.614 -2.901,1.323c-0.146,0.412 0.143001,0.494 0.446,0.489c-0.237,0.216 -0.62,0.341 -0.399,0.848c2.495,-1.146 7.34,-1.542 7.669001,0.804c0.072001,0.522 -0.395,1.241 -0.682001,1.835c-0.904999,1.874001 -2.011,3.394 -2.812999,5.091001c-0.298,0.016999 -0.366,0.179999 -0.525001,0.287c-2.604,3.799999 -5.451,8.541 -7.9,12.794001c-0.326,0.566 -1.098,1.401999 -1.002,1.906c0.144,0.771 1.329,1.129999 2.014,1.483999z" fill="#333333"/>
  <rect opacity="0" stroke="#000" fill="#000000" height="32" width="32" y="0.5" x="0.5"/>
 </g>
</svg>