 
	<svg xmlns="http://www.w3.org/2000/svg" version="1.1" width="32" height="32" style="position: absolute; left: 299px; top: 188px; " id="wand"><desc>Created with Raphaël</desc><defs></defs><path fill="#333333" stroke="none" d="M23.043,4.649L22.639,2.337L21.049,4.064L18.726,3.734L19.877,5.779L18.845,7.8870000000000005L21.147,7.424L22.833,9.057L23.104,6.7250000000000005L25.177999999999997,5.626L23.043,4.649ZM26.217,18.198L26.035,16.948L25.153,17.853L23.907999999999998,17.639000000000003L24.496,18.757L23.907999999999998,19.875L25.153,19.661L26.035,20.566000000000003L26.217,19.316000000000003L27.349999999999998,18.756000000000004L26.217,18.198ZM4.92,7.672L5.868,7.3L6.712000000000001,7.869L6.65,6.853L7.452,6.226L6.467,5.97L6.118,5.013L5.571,5.872L4.553,5.908L5.2,6.694000000000001L4.92,7.672ZM10.439,10.505L11.46,9.409L12.941,9.628L12.214,8.318L12.881,6.976999999999999L11.411,7.263999999999999L10.341999999999999,6.215999999999999L10.16,7.703L8.832,8.396L10.190000000000001,9.028L10.439,10.505ZM17.234,12.721C16.646,12.353,16.062,12.103,15.542000000000002,11.992C15.05,11.903,14.503000000000002,11.843000000000002,14.117,12.366000000000001L2.562,30.788H9.241999999999999L18.911,15.372C19.214000000000002,14.796,18.923000000000002,14.331,18.628,13.925C18.303,13.508,17.822,13.09,17.234,12.721ZM13.613,21.936C13.359,21.54,12.873,21.079,12.24,20.682C11.608,20.285999999999998,10.982,20.048,10.514,19.991999999999997L14.934999999999999,12.939999999999998C14.998999999999999,12.926999999999998,15.197,12.918999999999997,15.477999999999998,13.005999999999998C15.823999999999998,13.097999999999999,16.262999999999998,13.290999999999999,16.703,13.567999999999998C17.207,13.880999999999998,17.611,14.244999999999997,17.836,14.537999999999998C17.948999999999998,14.682999999999998,18.014,14.809,18.031,14.873C18.032999999999998,14.879,18.035,14.883999999999999,18.035,14.888L13.613,21.936Z"></path><rect x="0.5" y="0.5" width="32" height="32" r="0" rx="0" ry="0" fill="#000000" stroke="#000" style="opacity: 0; " opacity="0"></rect></svg>
